<?xml version="1.0" encoding="UTF-8"?>
<svg id="Calque_1" data-name="Calque 1" xmlns="http://www.w3.org/2000/svg" viewBox="0 0 992.13 680.31">
  <defs>
    <style>
      .cls-1 {
        fill: #3a6491;
      }

      .cls-1, .cls-2, .cls-3, .cls-4, .cls-5, .cls-6, .cls-7, .cls-8, .cls-9, .cls-10 {
        stroke-width: 0px;
      }

      .cls-2 {
        fill: #396695;
      }

      .cls-3 {
        fill: #3a6694;
      }

      .cls-4 {
        fill: #396592;
      }

      .cls-5 {
        fill: #3371aa;
      }

      .cls-6 {
        fill: #376a9d;
      }

      .cls-7 {
        fill: #37699a;
      }

      .cls-8 {
        fill: #104f81;
      }

      .cls-9 {
        fill: #305f85;
      }

      .cls-10 {
        fill: #f1d23d;
      }
    </style>
  </defs>
  <path class="cls-10" d="m796.73,416.91c-2.47-9.62-8.21-14.88-16.8-17.94,8.55-3.37,14.74-8.57,16.74-18.56,2.71,4.49,4.33,8.62,7.2,11.52,2.89,2.93,7.02,4.63,10.64,6.9-3.53,2.25-7.59,4.02-10.52,6.93-2.81,2.78-4.47,6.73-7.25,11.16Z"/>
  <path class="cls-9" d="m797.17,608c-.44-36.55-.87-73.11-1.31-109.66.46-.18.91-.35,1.37-.53.55.8,1.54,1.59,1.57,2.41.14,4.16.03,8.32-.01,12.48-.28,28.12-.57,56.25-.85,84.37-.04,3.66,0,7.32,0,10.98-.25-.02-.51-.04-.76-.06Z"/>
  <path class="cls-8" d="m849.9,180.81h-45.08c0-2.21,0-3.99,0-5.77,0-17.49-.05-34.98.03-52.47.03-5.9.42-11.8.66-18.34-2.82-1.59-6.35-3.59-10.1-5.71-2.82,3.8-5.36,7.23-7.08,9.54.68,4.1,1.54,6.95,1.55,9.8.12,19.49.07,38.98.05,58.47,0,1.43-.18,2.86-.31,4.75h-45.03c-.79,2.54-1.43,4.59-2.22,7.11h12.93c4.89,20.39,19.82,27.85,38.65,30.94v30.97h7.25v-31.11c19.08-2.99,33.47-10.91,38.42-30.93h12.9c-.98-2.73-1.74-4.85-2.61-7.27Zm-18.85,7.62c.78,4.2-.76,7.62-3.04,10.75-5.07,6.96-12.24,10.61-20.45,12.28-14.49,2.96-27.79.84-38.8-9.89-3.56-3.47-5.38-7.84-5.75-13.14"/>
  <path class="cls-5" d="m787.62,426.29v61.33c-.32.07-.64.14-.97.2-15.25-32.2-30.51-64.41-45.67-96.42h-19.48c-15.94,33.73-31.8,67.32-47.84,101.27h21.26c3.63-7.46,7.18-14.75,10.71-22.02h51.66c3.53,7.51,6.97,14.83,10.34,22h39.05v-66.37h-19.06Zm-72.87,24.43c5.55-11.7,10.9-22.97,16.59-34.98,5.71,12.12,11,23.32,16.49,34.98h-33.08Z"/>
  <path class="cls-6" d="m807.46,357.75h-19.29v-82.35h-33.6v-18.93h86.75v18.75h-33.86v82.53Z"/>
  <path class="cls-7" d="m739.67,338.07v19.53h-81.49v-101.1h79.66v18.59h-60.44v18.68h34.63v19.54h-34.69v24.75h62.34Z"/>
  <path class="cls-2" d="m618.41,318.12c1.46-.79,2.44-1.33,3.44-1.85,13.55-7.02,20.67-21.22,17.44-34.75-3.68-15.38-15.89-25.23-31.64-25.3-19.16-.09-38.32-.04-57.48-.02-1.27,0-2.54.23-3.75.34v101.06h19.06v-37.61h31.21c7.54,12.71,15.06,25.39,22.43,37.83h22.27c-7.78-13.44-15.3-26.45-22.97-39.71Zm-8.95-17.98c-14.28.27-28.57.06-42.86.03-.29,0-.59-.23-1.15-.47v-24.14c1.4-.12,2.36-.27,3.33-.27,12.63-.01,25.25-.05,37.88.01,6.81.04,11.48,3.3,13.38,9.08,2.39,7.23-2.95,15.61-10.59,15.76Z"/>
  <path class="cls-3" d="m434.75,256.42h19.22c0,1.73,0,3.48,0,5.22.01,16.67-.2,33.34.11,50.01.23,12.48,6.21,21.45,17.96,26.32,16.82,6.97,36.36-4.73,38.01-22.85.26-2.82.29-5.66.29-8.49.03-14.84.02-29.67.03-44.51,0-1.79,0-3.57,0-5.65h19.1c.11,1.72.29,3.18.29,4.63.01,15.67.08,31.34-.04,47.01-.07,8.87-.91,17.66-5.04,25.73-12.11,23.66-42.41,32.74-66.1,19.32-14.12-8-21.62-20.28-23.5-36.17-.37-3.13-.32-6.32-.32-9.49-.03-16.83-.01-33.65-.01-51.08Z"/>
  <path class="cls-4" d="m388.06,313.56h-34.77v24.75h62.18v19.41h-81.83v-101.23h80.16v18.8h-60.64v18.47h34.89v19.79Z"/>
  <path class="cls-1" d="m234.73,357.62v-101.22h18.79v81.72h62.75v19.51h-81.54Z"/>
  <path class="cls-1" d="m191.73,313.38h-37.2v44.3h-19.1v-101.15h81.56v18.66h-62.31v18.62h37.04v19.58Z"/>
</svg>