<svg width="49" height="12" viewBox="0 0 49 12" fill="none" xmlns="http://www.w3.org/2000/svg">
<path d="M0 11.638H1.18613V0.054299H0V0H6.51459L7.48174 3.27602H7.40875C7.00729 2.06938 6.52676 1.23077 5.96715 0.760181C5.4197 0.289593 4.79318 0.054299 4.08759 0.054299H2.427V5.41176H3.46715C4.12408 5.41176 4.6107 5.26094 4.927 4.95928C5.25547 4.65762 5.46228 4.07843 5.54744 3.22172H5.60218V7.69231H5.54744C5.46228 6.82353 5.25547 6.23831 4.927 5.93665C4.6107 5.62293 4.12408 5.46606 3.46715 5.46606H2.427V11.638H3.61313V11.6923H0V11.638Z" fill="#F2F2F8"/>
<path d="M8.10746 11.638H9.29358V0.054299H8.10746V0H10.5345V11.638H11.7206V11.6923H8.10746V11.638Z" fill="#F2F2F8"/>
<path d="M16.4737 12C15.6951 12 14.9895 11.8431 14.3569 11.5294C13.7243 11.2036 13.2255 10.7511 12.8605 10.1719C12.4956 9.59276 12.3131 8.93514 12.3131 8.19909C12.3131 7.45098 12.4834 6.78733 12.824 6.20815C13.1768 5.62896 13.6452 5.1825 14.2291 4.86878C14.8131 4.55505 15.4457 4.39819 16.1269 4.39819C16.7474 4.39819 17.3252 4.53092 17.8605 4.79638C18.408 5.04977 18.8642 5.4178 19.2291 5.90045C19.5941 6.38311 19.8192 6.94419 19.9043 7.58371H13.6452C13.6209 7.84917 13.6087 8.0543 13.6087 8.19909C13.6087 9.273 13.8642 10.1659 14.3751 10.8778C14.8861 11.5897 15.5856 11.9457 16.4737 11.9457C17.1184 11.9457 17.7267 11.7647 18.2985 11.4027C18.8703 11.0287 19.2778 10.4977 19.5211 9.80995L19.5758 9.82805C19.3204 10.54 18.9007 11.083 18.3167 11.457C17.7328 11.819 17.1184 12 16.4737 12ZM18.6269 7.52941C18.5418 6.61237 18.2863 5.87029 17.8605 5.30317C17.4347 4.73605 16.8569 4.45249 16.1269 4.45249C15.397 4.45249 14.8192 4.73605 14.3934 5.30317C13.9676 5.87029 13.7182 6.61237 13.6452 7.52941H18.6269Z" fill="#F2F2F8"/>
<path d="M24.0006 12C23.2098 12 22.5955 11.7828 22.1575 11.3484C21.7196 10.914 21.5006 10.3228 21.5006 9.57466V4.66968H20.3145V4.61538H22.7415V9.91855C22.7415 10.5701 22.8449 11.0709 23.0517 11.4208C23.2585 11.7587 23.6052 11.9276 24.0918 11.9276C24.5785 11.9276 25.0042 11.7828 25.3692 11.4932C25.7463 11.1916 26.0383 10.8235 26.2451 10.3891V4.66968H25.059V4.61538H27.486V11.638H28.6721V11.6923H26.2451V10.5339C26.0383 10.9442 25.7463 11.2941 25.3692 11.5837C24.9921 11.8612 24.5359 12 24.0006 12Z" fill="#F2F2F8"/>
<path d="M29.2603 11.638H30.4465V4.66968H29.2603V4.61538H31.6873V6.53394C31.809 5.88235 32.0097 5.3635 32.2895 4.97738C32.5815 4.59125 32.9465 4.39819 33.3844 4.39819C33.6277 4.39819 33.9197 4.43439 34.2603 4.50679C34.5766 4.57919 34.8321 4.61538 35.0268 4.61538L35.5925 6.51584H35.5377C35.1727 5.80392 34.826 5.28507 34.4976 4.95928C34.1691 4.62142 33.7981 4.45249 33.3844 4.45249C32.91 4.45249 32.5328 4.68778 32.253 5.15837C31.9732 5.61689 31.7847 6.22624 31.6873 6.98643V11.638H32.8735V11.6923H29.2603V11.638Z" fill="#F2F2F8"/>
<path d="M40.068 12C39.2894 12 38.5838 11.8431 37.9512 11.5294C37.3186 11.2036 36.8198 10.7511 36.4548 10.1719C36.0899 9.59276 35.9074 8.93514 35.9074 8.19909C35.9074 7.45098 36.0777 6.78733 36.4183 6.20815C36.7711 5.62896 37.2395 5.1825 37.8234 4.86878C38.4074 4.55505 39.04 4.39819 39.7212 4.39819C40.3417 4.39819 40.9195 4.53092 41.4548 4.79638C42.0023 5.04977 42.4585 5.4178 42.8234 5.90045C43.1884 6.38311 43.4135 6.94419 43.4986 7.58371H37.2395C37.2152 7.84917 37.203 8.0543 37.203 8.19909C37.203 9.273 37.4585 10.1659 37.9694 10.8778C38.4804 11.5897 39.1799 11.9457 40.068 11.9457C40.7127 11.9457 41.321 11.7647 41.8928 11.4027C42.4645 11.0287 42.8721 10.4977 43.1154 9.80995L43.1701 9.82805C42.9147 10.54 42.495 11.083 41.911 11.457C41.3271 11.819 40.7127 12 40.068 12ZM42.2212 7.52941C42.1361 6.61237 41.8806 5.87029 41.4548 5.30317C41.029 4.73605 40.4512 4.45249 39.7212 4.45249C38.9913 4.45249 38.4135 4.73605 37.9877 5.30317C37.5619 5.87029 37.3125 6.61237 37.2395 7.52941H42.2212Z" fill="#F2F2F8"/>
<path d="M47.5219 12C46.6095 12 46.0134 11.7406 45.7336 11.2217C45.4538 10.7029 45.3139 10.0211 45.3139 9.17647V4.66968H43.8905V4.61538H45.3139V2.08145H46.573V4.61538H49V4.66968H46.573V10.1719C46.573 11.3424 46.9258 11.9276 47.6314 11.9276C47.972 11.9276 48.2397 11.8492 48.4343 11.6923C48.629 11.5475 48.7993 11.3364 48.9453 11.0588L49 11.0769C48.8419 11.3906 48.6533 11.6199 48.4343 11.7647C48.2153 11.9216 47.9112 12 47.5219 12Z" fill="#F2F2F8"/>
</svg>
