<svg width="34" height="59" viewBox="0 0 34 59" fill="none" xmlns="http://www.w3.org/2000/svg">
<rect x="0.500003" y="58.5" width="58" height="33" rx="16.5" transform="rotate(-90 0.500003 58.5)" stroke="#F2F2F8"/>
<path d="M17.3441 44.4993L17.3441 59L16.9312 59L16.9312 44.4993C16.9312 42.1918 15.7382 40.4826 13.3522 39.3716C11.058 38.2178 6.60729 37.4914 -2.80764e-07 37.1923L-3.0598e-07 37L34 37L34 37.1923C27.4845 37.4914 23.0796 38.2178 20.7854 39.3716C18.4912 40.4826 17.3441 42.1918 17.3441 44.4993Z" fill="#F2F2F8"/>
<path d="M17.3441 20.9787L17.3441 1L16.9312 1L16.9312 20.9787C16.9312 25.9083 15.7382 29.5599 13.3522 31.9334C11.058 34.3983 6.60729 35.9502 3.43123e-06 36.5892L3.4851e-06 37L34 37L34 36.5892C27.4845 35.9502 23.0796 34.3982 20.7854 31.9334C18.4912 29.5599 17.3441 25.9083 17.3441 20.9787Z" fill="#F2F2F8"/>
</svg>
